<svg width="21" height="22" viewBox="0 0 21 22" fill="none" xmlns="http://www.w3.org/2000/svg">
<path fill-rule="evenodd" clip-rule="evenodd" d="M3.53544 2.69L3.33848 5.14C3.29909 5.61 3.66346 6 4.12632 6H19.2036C19.6173 6 19.9619 5.68 19.9915 5.26C20.1195 3.49 18.79 2.05 17.0469 2.05H4.94371C4.84522 1.61 4.64826 1.19 4.34298 0.84C3.85057 0.31 3.16121 0 2.45216 0H0.738601C0.334833 0 0 0.34 0 0.75C0 1.16 0.334833 1.5 0.738601 1.5H2.45216C2.75745 1.5 3.04304 1.63 3.24985 1.85C3.45665 2.08 3.55513 2.38 3.53544 2.69ZM9 20C9 21.1046 8.10457 22 7 22C5.89543 22 5 21.1046 5 20C5 18.8954 5.89543 18 7 18C8.10457 18 9 18.8954 9 20ZM17 20C17 21.1046 16.1046 22 15 22C13.8954 22 13 21.1046 13 20C13 18.8954 13.8954 18 15 18C16.1046 18 17 18.8954 17 20ZM4.14956 8H19.2209C19.6826 8 20.0363 8.37818 19.997 8.82424L19.6728 13.3527C19.5647 14.8073 18.2678 16 16.7941 16H5.8689C4.18886 16 2.87233 14.5842 3.00988 12.9261L3.36357 8.70788C3.40287 8.3103 3.73691 8 4.14956 8Z" fill="white"/>
</svg>
