<svg width="22" height="22" viewBox="0 0 22 22" fill="none" xmlns="http://www.w3.org/2000/svg">
<path d="M19.8889 0H2.11111C1.81643 0 1.53381 0.116448 1.32544 0.323727C1.11706 0.531005 1 0.812136 1 1.10527V3.96793C1 4.54598 1.23667 5.11409 1.64778 5.52304L7.66667 11.5103V19.8949C7.66688 20.0832 7.71542 20.2683 7.80767 20.4328C7.89992 20.5972 8.03283 20.7355 8.19382 20.8346C8.35482 20.9336 8.53857 20.9902 8.72767 20.9988C8.91677 21.0075 9.10497 20.968 9.27444 20.8841L13.7189 18.6736C14.0956 18.4857 14.3333 18.1032 14.3333 17.6843V11.5103L20.3522 5.52304C20.7633 5.11409 21 4.54598 21 3.96793V1.10527C21 0.812136 20.8829 0.531005 20.6746 0.323727C20.4662 0.116448 20.1836 0 19.8889 0Z" fill="#D9FF5A"/>
</svg>
