<svg width="356" height="136" viewBox="0 0 356 136" fill="none" xmlns="http://www.w3.org/2000/svg">
<path d="M175.587 1.28923C224.621 -0.423078 269.232 5.56663 301.709 16.602C317.951 22.121 331.106 28.8847 340.262 36.5343C349.418 44.1843 354.488 52.6415 354.8 61.5715C355.111 70.5015 350.644 79.2918 342.044 87.5618C333.444 95.8315 320.792 103.496 304.975 110.135C273.347 123.409 229.262 132.496 180.228 134.208C131.194 135.921 86.5832 129.931 54.1063 118.895C37.8643 113.376 24.7091 106.613 15.5532 98.9631C6.39692 91.3131 1.32711 82.856 1.01526 73.9259C0.70342 64.9959 5.17094 56.2057 13.7713 47.9356C22.3713 39.666 35.0227 32.001 50.84 25.3626C82.468 12.0886 126.552 3.00155 175.587 1.28923Z" stroke="#D9FF5A" stroke-width="2"/>
</svg>
